<svg xmlns="http://www.w3.org/2000/svg" xmlns:xlink="http://www.w3.org/1999/xlink" id="Layer_0_xA0_Image_00000072260938662616530190000017993061876025749648_" x="0" y="0" version="1.1" viewBox="0 0 224 280" style="enable-background:new 0 0 224 280" xml:space="preserve"><style type="text/css">.st0{opacity:.5}</style><g><g><path d="M72.23,12.67c0.55,0,1.11,0,1.66,0c0.22,0.11,0.44,0.3,0.67,0.32c2.73,0.25,5.13,1.31,7.18,3.07 c10.09,8.61,21.66,12.58,34.93,11.31c9.14-0.88,17.26-4.22,24.34-10.06c2.28-1.88,4.62-3.58,7.6-4.17 c0.72-0.14,1.43-0.31,2.15-0.47c0.55,0,1.11,0,1.66,0c0.22,0.11,0.44,0.31,0.67,0.32c2.57,0.14,4.86,1.09,6.78,2.69 c7.26,6.05,13.03,13.33,17.46,21.67c6.95,13.08,9.33,27.09,8.26,41.76c-0.08,1.03,0.2,1.63,0.99,2.21 c3.77,2.76,7.46,5.64,11.27,8.34c8.01,5.69,12.9,13.11,13.18,23.17c0.02,5.81,0.04,11.62,0.07,17.43c-0.04,0.5-0.1,0.99-0.1,1.49 c0,8.2-0.96,16.31-2.31,24.39c-2.75,16.39-7.83,32.02-15.43,46.8c-5.38,10.44-11.89,20.11-19.96,28.68 c-6.66,7.07-14.04,13.34-21.84,19.1c-8.14,6.01-16.74,11.24-26.53,14.18c-6.6,1.99-13.31,2.57-20.12,1.3 c-8.67-1.62-16.59-5.18-23.85-10.06c-5.88-3.96-11.5-8.32-17.09-12.68c-6.7-5.22-12.71-11.2-18.06-17.8 c-8.61-10.62-15.26-22.4-20.42-35.03c-7.02-17.18-10.96-35.1-11.94-53.6c-0.44-8.34-0.32-16.73-0.07-25.09 c0.26-8.62,4.32-15.46,11.07-20.7c4.53-3.52,9.17-6.9,13.74-10.37c0.33-0.25,0.73-0.77,0.69-1.12c-0.56-5.36-0.48-10.7,0.04-16.06 c0.77-7.81,2.83-15.24,6.05-22.37c3.17-7.04,7.44-13.39,12.65-19.06c2.9-3.15,5.61-6.65,9.8-8.28 C68.97,13.4,70.63,13.1,72.23,12.67z M114.87,186.44c-0.24-3.03-0.45-6.06-0.73-9.09c-0.87-9.68-3.48-18.86-7.66-27.66 c-1.35-2.84-2.93-4.17-6.24-4.67c-13.88-2.1-26.19-7.81-36.69-17.24c-1.42-1.27-1.96-1.17-2.92,0.47 c-8.96,15.26-17.9,30.53-26.9,45.77c-1.01,1.71-1.54,3.29-0.53,5.2c0.64,1.21,0.95,2.59,1.45,3.88 c6.83,17.62,16.32,33.47,30.46,46.29c6.77,6.14,13.86,11.86,21.52,16.86c1.35,0.88,2.29,0.85,3.46-0.34 c5.98-6.08,11-12.87,14.94-20.41C111.42,213.28,114.62,200.24,114.87,186.44z M114.74,135.24c2.45-0.35,7.41-0.74,12.23-1.79 c11.35-2.48,21.18-7.9,29.5-16.06c5.42-5.32,9.8-11.4,12.81-18.34c3.05-7.03,5.69-14.25,4.78-22.18 c-0.58-5.02-2.57-9.35-6.61-12.5c-5.92-4.61-12.71-5.58-19.9-4.26c-9.72,1.78-17.07,7.39-23.34,14.71 c-2.58,3.02-5.18,6.05-8.03,8.8c-2.35,2.26-5.35,2.17-7.85,0.19c-1.12-0.89-2.14-1.92-3.11-2.97c-3.71-4.03-7.08-8.42-11.12-12.07 c-7.56-6.82-16.48-10.32-26.86-8.81c-4.87,0.71-9.23,2.64-12.49,6.48c-4.55,5.33-5.43,11.62-4.16,18.24 c3.24,16.9,11.98,30.29,26.21,39.97C87.47,131.89,99.42,135.04,114.74,135.24z M117.42,145.9c15.46,39.33,9.76,74.87-18,106.8 c5.58,2.14,11.46,3.51,17.51,2.22c14.01-2.98,25.49-10.1,34.24-21.58c6.12-8.02,11.01-16.7,14.67-26.08 c5.52-14.12,8.35-28.66,6.96-43.89c-0.72-7.9-2.46-15.55-5.43-22.88c-1.73-4.26-3.87-8.35-5.95-12.79 C148.49,138.84,133.82,144.73,117.42,145.9z M171.73,53.6c0.16-0.15,0.32-0.3,0.48-0.45c-0.94-2.4-1.81-4.83-2.83-7.2 c-3.55-8.21-8.86-15.17-15.46-21.16c-1.62-1.47-3.08-1.39-4.75,0.01c-4.09,3.42-8.48,6.35-13.35,8.58 c-10.84,4.97-22.13,6.28-33.82,4.25c-5.81-1.01-11.41-2.76-16.49-5.81c-3.54-2.13-6.88-4.59-10.26-6.97 c-2.14-1.51-3.37-1.54-5.25,0.33c-2.04,2.03-4.08,4.07-5.95,6.26c-5.23,6.14-8.94,13.15-11.51,20.77 c-0.16,0.49-0.08,1.06-0.12,1.71c0.45-0.14,0.63-0.16,0.76-0.24c6.35-3.75,13.14-5.56,20.57-5.16c8.45,0.46,16.06,3.26,22.72,8.28 c4.4,3.31,8.32,7.27,12.4,11c2.22,2.03,4.38,2.05,6.56-0.03c3.21-3.05,6.29-6.27,9.73-9.03c8.59-6.9,18.27-10.81,29.52-10.2 c5.52,0.3,10.65,1.78,15.44,4.5C170.62,53.3,171.2,53.41,171.73,53.6z M178.85,205c0.17-0.12,0.3-0.16,0.35-0.24 c0.94-1.61,1.93-3.21,2.8-4.85c5.91-11.12,10.31-22.81,13.28-35.06c2.5-10.33,3.93-20.83,4.35-31.43 c0.26-6.64,0.07-13.31,0.05-19.96c-0.01-3.65-1.09-6.98-3.38-9.83c-3.58-4.45-8.75-6.92-13.12-10.69 c-0.44,1.36-0.78,2.46-1.16,3.55c-2.81,8.06-6.77,15.49-12.07,22.2c-0.57,0.73-0.53,1.18-0.09,1.87 c8.64,13.69,13.36,28.66,14.4,44.77c0.58,8.97-0.1,17.91-2.13,26.69C181.15,196.34,179.97,200.62,178.85,205z M28.09,160.78 c0.17,0.01,0.33,0.02,0.5,0.03c8.42-14.39,16.85-28.78,25.31-43.23c-5.7-7.38-9.86-15.56-12.54-24.72 c-3.57,2.67-6.94,5.14-10.26,7.68c-4.42,3.39-6.44,7.97-6.46,13.49c-0.06,12.94-0.25,25.89,2,38.71 C27.11,155.43,27.61,158.11,28.09,160.78z"/><path d="M104.38,104.41c0.52-2.26,0.68-4.7,1.66-6.75c1.44-3.03,4.81-4.18,8.07-3.35c2.87,0.73,5.12,3.58,5.38,6.66 c0.68,8.05-1.09,15.56-4.97,22.58c-0.46,0.84-1.58,1.84-2.38,1.82c-0.81-0.02-1.88-1.04-2.35-1.89 c-3.22-5.9-5.11-12.17-4.97-18.97C104.68,104.48,104.53,104.44,104.38,104.41z"/><path d="M67.56,86.46c0.13-3.17,1.12-6.18,3.57-8.6c3.13-3.1,7.48-3.06,10.59,0.11c4.71,4.78,4.44,13.63-0.55,18.15 c-3.24,2.93-8.11,2.46-10.77-1.02C68.47,92.6,67.6,89.78,67.56,86.46z"/><path d="M159.51,86.57c0.02,1.69-0.57,3.11-2.02,3.92c-1.48,0.83-3.13,0.66-4.51-0.27c-3.77-2.53-7.35-2.03-11,0.26 c-1.06,0.66-2.33,1.26-3.54,1.34c-2.25,0.14-3.74-2.41-2.67-4.41c2.52-4.72,6.11-8.28,11.51-9.38c5.02-1.02,10.17,1.86,11.89,6.79 C159.36,85.38,159.4,85.99,159.51,86.57z"/></g><g class="st0"><path d="M114.87,186.44c-0.25,13.8-3.45,26.85-9.83,39.07c-3.94,7.55-8.96,14.34-14.94,20.41c-1.17,1.19-2.11,1.22-3.46,0.34 c-7.66-5-14.75-10.72-21.52-16.86c-14.14-12.82-23.63-28.67-30.46-46.29c-0.5-1.29-0.81-2.67-1.45-3.88 c-1.01-1.92-0.48-3.49,0.53-5.2c8.99-15.24,17.94-30.51,26.9-45.77c0.96-1.64,1.5-1.75,2.92-0.47 c10.5,9.43,22.81,15.15,36.69,17.24c3.31,0.5,4.89,1.82,6.24,4.67c4.18,8.79,6.78,17.97,7.66,27.66 C114.41,180.37,114.63,183.41,114.87,186.44z"/><path d="M171.73,53.6c-0.53-0.19-1.11-0.3-1.6-0.57c-4.8-2.71-9.92-4.19-15.44-4.5c-11.25-0.61-20.93,3.3-29.52,10.2 c-3.44,2.76-6.52,5.98-9.73,9.03c-2.18,2.07-4.34,2.05-6.56,0.03c-4.08-3.73-8-7.69-12.4-11c-6.67-5.01-14.28-7.82-22.72-8.28 c-7.42-0.4-14.22,1.41-20.57,5.16c-0.14,0.08-0.31,0.1-0.76,0.24c0.04-0.65-0.05-1.23,0.12-1.71c2.57-7.62,6.28-14.63,11.51-20.77 c1.86-2.19,3.91-4.23,5.95-6.26c1.88-1.87,3.11-1.84,5.25-0.33c3.38,2.38,6.72,4.85,10.26,6.97c5.07,3.05,10.68,4.8,16.49,5.81 c11.69,2.03,22.98,0.72,33.82-4.25c4.87-2.23,9.26-5.16,13.35-8.58c1.67-1.4,3.13-1.48,4.75-0.01c6.6,5.99,11.9,12.94,15.46,21.16 c1.02,2.37,1.89,4.8,2.83,7.2C172.05,53.3,171.89,53.45,171.73,53.6z"/></g></g></svg>