<?xml version="1.0" encoding="UTF-8"?>
<svg id="Layer_1" data-name="Layer 1" xmlns="http://www.w3.org/2000/svg" version="1.1" viewBox="0 0 595.28 841.89">
  <defs>
    <style>
      .cls-1 {
        fill: #997337;
      }

      .cls-1, .cls-2, .cls-3, .cls-4, .cls-5, .cls-6, .cls-7 {
        stroke-width: 0px;
      }

      .cls-2 {
        fill: #453c3c;
      }

      .cls-3 {
        fill: #f1a13f;
      }

      .cls-4 {
        fill: #fefefd;
      }

      .cls-5 {
        fill: #d2903b;
      }

      .cls-6 {
        fill: #ab8242;
      }

      .cls-7 {
        fill: #fad367;
      }
    </style>
  </defs>
  <path class="cls-1" d="M279.86,698.9c-59.53-7.77-130.83-31.59-161.65-84.5,18.45-20.93,41.66-38.61,54.6-63.85,16.64-30.64-7.14-60.23-22.13-86.07-22.74-38.29-57.98-72.58-104.04-77.8-4.34-.63-4.37-.56-4.34-4.86-1.14-55.98,3.86-115.41,38.09-161.99,31.78-47.91,88.22-73.71,144.78-75.14,20.88-1.17,42.01-1.12,62.89-.27,16.01,2.31,11.18,20.78,11.84,32.39,0,8.86,0,17.73,0,26.59-.75,5.8,4.9,25.24-6.75,20.63-10.13-11.33-21.16-21.52-34.5-28.97-62.49-38.09-156.51-9.21-179.66,62.23-11.19,28.77-12.99,61.54-.59,90.26,18.46,40.44,57.45,74.35,102.8,78.23,16.91,1.46,33.28-.99,49.39-5.96,9.96-3.07,19.46-7.25,28.88-11.62,1.94-.36,3.37.76,4.81,1.74,10.47,7.18,15.34,19.45,24.44,28.02,7.49,4.13,11.5,11.19,11.15,19.85.05,71.16.01,142.32,0,213.48,1.88,14-1.55,32.57-20.03,27.61Z"/>
  <path class="cls-6" d="M279.86,698.9c13.67,1.71,20.82-6.9,19.76-20.08-1.37-73.3-.06-146.71-.46-220.05,0-5.56-1.42-10.69-3.88-15.6,8.31-2.77,15.56-9.31,20.63-16.66,4.6-6.78,8.87-14.47,16.44-18.32,6.27-.69,12.43,5.42,18.69,6.97,81.71,36.14,172.96-25.19,173.32-113.56-5.21-121.96-142.21-161.55-224.7-79.06-4.25-89.9,19.95-77.26-74.51-77.85,126.23-15.76,283.75-8.26,314.89,143.11,6.09,24.96,7.63,50.66,7.77,76.27-.74,3.56,2.29,25.95-1.64,24.73-22.21-1.1-42.84,9.59-58.77,24.4-27.25,25.47-74.05,80.68-70.58,119.38,4.1,34.97,38.84,55.25,57.87,81.36-27.68,43.01-76.36,66.75-124.7,78.67-19.27,2.96-53.42,16.37-70.16,6.29Z"/>
  <path class="cls-7" d="M44.46,385.66c53.55,5.39,91.32,48.23,115.41,93.06,7.4,13.99,17.64,27.24,18.97,43.52,2.28,41.13-38.1,65.62-61.49,94.01-58.68,34.86-63.91,59.28-85.38-22.4-12.96-44.22-21.51-90.22-19.55-136.44.96-26.54,4.28-57.92,30.34-71.89"/>
  <path class="cls-7" d="M474.72,613.94c-23.07-28.18-63.79-53.41-58.16-94.69,5.94-30.5,27.13-56.45,45.56-80.68,21.68-25.91,49.76-52.71,85.89-50.54,28.66,4.23,31.47,36.33,34.06,59.83,4.25,48.11-7.14,95.71-17.77,142.33-3.76,15.58-9.21,30.72-15.24,45.57-5.13,16.37-20.18,14.29-32.17,6.55-14.89-8.13-26.43-21.89-42.17-28.37Z"/>
  <path class="cls-7" d="M299.68,222.54c57.57-60.32,157.6-61.39,205.09,11.5,35.33,53.72,22.33,126.76-28.37,165.99-35.63,30.62-87.67,32.61-129.48,14.14-22.72-8.74-9.16-8.27-18.62-30.95-7.83-21.71-33.63-20.39-51.68-13.54-11.36,1.07-17.43,14.8-15.05,24.96.47,4.34,2.79,11.28-1.75,13.96-17.03,8.54-35.22,14.97-54.19,17.35-47.89,7.28-93.74-21.78-118.88-61.19-28.55-42.99-19.93-101.75,10.28-141.59,32.6-42.35,95.55-56.13,144.57-37.2,13.09,5.25,24.96,12.47,35.75,21.53,4.59,4.04,9.6,7.83,13.09,12.91,2.22,3.53,5.7,5.39,9.24,2.12Z"/>
  <path class="cls-5" d="M259.82,408.6c5.43-6.89-1.7-16.14.95-23.82,3.11-12.75,14.37-18.56,26.84-16.01,13.23,2.74,13.34,18.55,12.46,29.34-1.71,13.91-2.05,28.07,2.91,41.19-13.66,16.82-29.07-29.41-43.17-30.7Z"/>
  <path class="cls-3" d="M302.99,439.3c-14.88-20.68,14.88-75.06-26.41-70.07,35.71-13.83,55.81,1.77,57.58,38.88-14.52,5.66-16.8,25.31-31.17,31.19Z"/>
  <path class="cls-4" d="M192.05,384.67c-61.3,1.37-110.61-70.7-74.2-124.31,26.05-43.14,88.47-55.6,127.91-23.39,66.28,49.17,25.29,148.43-53.71,147.7Z"/>
  <path class="cls-4" d="M315.31,304.07c-1.06-85.03,114.58-118.26,156.48-43.91,27.18,45.55,1.41,110.42-51.14,122.03-49.52,13.99-104.95-26.63-105.35-78.12Z"/>
  <path class="cls-2" d="M194.59,357.52c-66.13-.27-75.18-98.44-9.88-110.22,80.11-10.9,90.18,106.91,9.88,110.22Z"/>
  <path class="cls-2" d="M399.61,357.52c-73.22-2.02-73.45-109.5.23-111.13,73.19,1.48,72.42,109.82-.23,111.13Z"/>
</svg>