<?xml version="1.0" encoding="UTF-8"?>
<svg id="Layer_1" data-name="Layer 1" xmlns="http://www.w3.org/2000/svg" version="1.1" viewBox="0 0 256 256">
  <defs>
    <style>
      .cls-1 {
        fill: #fff;
        stroke-width: 0px;
      }
    </style>
  </defs>
  <circle class="cls-1" cx="140.5" cy="31.6" r="10"/>
  <polygon class="cls-1" points="140.8 26.8 133.6 67.5 147.9 67.5 140.8 26.8"/>
  <path class="cls-1" d="M78,219.1v-27.2c0-.4.3-.7.6-.7h.4l53.2,28.4c.3.2.7,0,.9-.2v-27.6c0-.4-.3-.7-.6-.7h-.4l-53.2,28.4c-.3.2-.7,0-.9-.2v-.4.2Z"/>
  <path class="cls-1" d="M165.1,85.1H46.2c-1.9,0-3.4,1.5-3.4,3.4v81.3c0,1.9,1.5,3.4,3.4,3.4h118.9c1.9,0,3.4-1.5,3.4-3.4v-81.3c0-1.9-1.5-3.4-3.4-3.4ZM92.7,138.8c-1.9.1-3.1-1.2-3.4-3.8-.7-6.7-5.5-11.2-11.7-11-5.2.1-9.9,4.4-10.6,9.6-.1.9-.2,1.7-.4,2.6-.4,1.8-1.5,2.9-3.4,2.6-1.9-.2-2.9-1.7-2.9-3.5,0-9.7,8.3-17.9,17.8-17.7,9.3.2,16.8,7.4,17.5,16.9.2,2.5-1,4.2-3,4.4ZM150.7,135.7c-.2,1.8-1.2,3-3.1,3.1-1.9,0-3-1.1-3.2-2.9-.2-1.6-.3-3.1-.9-4.7-1.7-4.5-5.7-7.3-10.5-7.2-5.8,0-10.5,4.4-11,10.1,0,.7,0,1.4-.3,2.1-.5,1.6-1.5,2.7-3.3,2.5-1.8-.2-2.7-1.4-2.8-3.3-.4-8.2,6.3-16.5,14.4-17.8,9.3-1.5,17.9,4.2,20.1,13.2.4,1.5.7,3.1.5,4.7Z"/>
</svg>