<?xml version="1.0" encoding="UTF-8"?>
<svg id="Layer_1" data-name="Layer 1" xmlns="http://www.w3.org/2000/svg" viewBox="0 0 1227.33 440.01">
  <defs>
    <style>
      .cls-1 {
        fill: #fff;
        stroke-width: 0px;
      }
    </style>
  </defs>
  <path class="cls-1" d="M480.63,143.1c-16.32,66.87-31.17,131.68-48.26,195.89-7.57,28.45-22.67,53.98-45.68,73.46-54.81,46.41-134.8,29.54-166.79-36.9-14.44-30-22.18-63.15-35.14-93.95-15.17-36.06-29.81-72.87-49.89-106.22C105.2,126.11,61.81,94.66,0,93.98V.07c38.43-.93,74.32,7.14,108,24.66,68.02,35.37,111.25,93.03,140.45,161.64,16.82,39.52,29.15,80.95,43.58,121.49,2.88,8.09,5.35,16.47,9.44,23.94,8.25,15.08,22.42,15.97,31.56,1.29,6.21-9.98,11.09-21.39,13.83-32.82,11.16-46.52,21.69-93.2,31.48-140.02,2.68-12.81,6.81-18.41,21.24-17.58,25.75,1.48,51.65.42,81.05.42Z"/>
  <path class="cls-1" d="M933.74,311.75c.04-83.91,56.89-155.87,135.29-169.5,35.29-6.14,70.12-2.54,101.63,15.99,38.61,22.7,55.69,58.79,56.62,102.06,1.48,69.25-26.88,123.64-86.82,159.54-54.93,32.9-133.73,23.83-174.62-18.63-24.11-25.03-32.44-55.69-32.1-89.46ZM1011.45,308.74c-.96,27.96,6.72,51.74,33.96,64.18,23.49,10.73,54.32,1.57,75.09-21.66,22.63-25.32,30.48-56.04,29.14-89.17-.96-23.69-8.47-45.29-32.43-54.75-24.65-9.73-48.23-4.94-68.14,12.99-26.16,23.55-36.88,53.95-37.61,88.41Z"/>
  <path class="cls-1" d="M566.02,312.6c1.69,28.56,9.76,51.48,35.91,61.45,43.69,16.66,79.37,1.1,110.03-32.58,11.96,15.95,23.37,31.16,35.46,47.27-18.14,19.42-39.27,33.83-64.26,41.82-40.07,12.8-80.4,13.24-119.71-2.65-43.24-17.48-80.65-60.97-73.19-137.59,9.97-102.45,114.37-173.78,211.89-143.13,46.08,14.49,71.03,50.71,65.42,95.21-3.46,27.43-19.6,46.75-44.09,55.84-21.14,7.85-44.29,12.04-66.87,13.79-29.47,2.28-59.25.56-90.57.56ZM574.38,264.45c27.34,0,53.62.8,79.81-.42,9.55-.44,19.91-4.02,28.1-9.08,16.42-10.14,17.95-33.65,2.47-45.1-8.23-6.09-19.84-10.29-30.04-10.54-37.66-.9-68.72,24.67-80.35,65.14Z"/>
  <path class="cls-1" d="M910.86,368.54c-4.1,19.92-7.42,37.73-11.73,55.29-.68,2.77-5.79,6.26-8.92,6.33-16.28.38-32.68.73-48.87-.71-39.87-3.56-59.23-28.03-52.17-67.95,7.84-44.32,17.64-88.3,26.87-132.36,13.16-62.81,26.91-125.49,39.56-188.4,2.12-10.54,6.26-13.05,16.1-12.7,19.58.69,39.2.2,60.66.2-1.05,6.26-1.71,11.24-2.74,16.13-20.63,97.42-41.44,194.81-61.9,292.27-5.85,27.89-2.13,31.91,26.5,31.9,4.72,0,9.45,0,16.63,0Z"/>
</svg>