<?xml version="1.0" encoding="UTF-8"?>
<svg id="Layer_1" data-name="Layer 1" xmlns="http://www.w3.org/2000/svg" version="1.1" viewBox="0 0 351.51 211.41">
  <defs>
    <style>
      .cls-1 {
        fill: #000;
        stroke-width: 0px;
      }
    </style>
  </defs>
  <path class="cls-1" d="M175.61,211.41c-32.83,0-65.66,0-98.5,0-6.88,0-7-.12-7-6.98-.01-42,0-84-.01-126,0-6.98-.02-7.01-6.87-7.01-18.83-.01-37.67-.14-56.5.08-4.88.06-6.79-1.26-6.73-6.46C.25,45.37.21,25.7.02,6.04-.02,1.41,1.66-.02,6.15.02c19.83.17,39.67.16,59.5,0,4.31-.03,5.87,1.43,5.83,5.79-.16,19.16-.07,38.33-.06,57.5,0,6.73.04,6.76,6.61,6.77,18.5.02,37,0,55.5,0q7.87,0,7.88,8.11c0,18.5.17,37-.1,55.5-.07,5.12,1.62,6.56,6.6,6.49,18.66-.25,37.33-.23,56,0,4.81.06,6.33-1.5,6.28-6.29-.22-19.16.03-38.33-.17-57.5-.05-4.72,1.43-6.44,6.28-6.39,18.66.21,37.33.09,56,.08q7.79,0,7.8-7.58c0-18.67.16-37.33-.1-56-.07-5.14,1.74-6.57,6.68-6.51,19.5.22,39,.21,58.5,0,4.79-.05,6.37,1.56,6.32,6.34-.2,19.5-.22,39,0,58.5.06,4.96-1.41,6.73-6.53,6.66-17.83-.26-35.66-.12-53.5-.09-11.03.02-10.05-1.07-10.06,9.81-.02,41,0,82-.01,123,0,7.15-.03,7.17-7.31,7.18-32.83,0-65.66,0-98.5,0Z"/>
</svg>