<?xml version="1.0" encoding="UTF-8"?>
<svg id="Layer_1" data-name="Layer 1" xmlns="http://www.w3.org/2000/svg" version="1.1" viewBox="0 0 29.67 29.67">
  <defs>
    <style>
      .cls-1 {
        isolation: isolate;
        opacity: .5;
      }

      .cls-1, .cls-2 {
        fill: #fff;
        stroke-width: 0px;
      }
    </style>
  </defs>
  <path class="cls-2" d="M25.99,12.44c3.15-6.42,3.68-12.44,3.68-12.44,0,0-6.02.53-12.45,3.68,4.38.93,7.83,4.39,8.77,8.76h0Z"/>
  <path class="cls-1" d="M25.99,17.24c-.95,4.44-4.5,7.92-8.97,8.79l.33.33c1.23,1.23,2.83,1.84,4.44,1.84s3.21-.61,4.44-1.84c2.45-2.45,2.45-6.43,0-8.88l-.24-.24h0Z"/>
  <path class="cls-2" d="M21.73,14.84c0-.78-.13-1.53-.37-2.23-.69-2.01-2.28-3.61-4.29-4.29-.7-.24-1.45-.37-2.23-.37-3.8,0-6.89,3.09-6.89,6.89,0,.93.19,1.83.53,2.64.7,1.68,2.05,3.03,3.73,3.73.81.34,1.71.53,2.64.53,3.8,0,6.89-3.09,6.89-6.89h0Z"/>
  <path class="cls-1" d="M3.64,12.65c.87-4.47,4.36-8.01,8.79-8.97l-.23-.23c-2.45-2.45-6.43-2.45-8.88,0-2.45,2.45-2.45,6.43,0,8.88l.32.32Z"/>
  <path class="cls-2" d="M3.68,17.22C.53,23.64,0,29.67,0,29.67c0,0,6.03-.53,12.45-3.68-4.38-.94-7.84-4.39-8.77-8.77Z"/>
</svg>