<?xml version="1.0" encoding="UTF-8"?>
<svg id="Layer_1" data-name="Layer 1" xmlns="http://www.w3.org/2000/svg" version="1.1" viewBox="0 0 256 256">
  <defs>
    <style>
      .cls-1 {
        stroke-linecap: round;
        stroke-width: 5.9px;
      }

      .cls-1, .cls-2 {
        fill: none;
        stroke: #fff;
        stroke-miterlimit: 10;
      }

      .cls-2 {
        stroke-width: 9.9px;
      }

      .cls-3 {
        fill: #fff;
        stroke-width: 0px;
      }
    </style>
  </defs>
  <rect class="cls-2" x="65.2" y="91.8" width="125.7" height="88.1" rx="3.4" ry="3.4"/>
  <path class="cls-1" d="M85.9,142c0-8.3,6.5-15.1,14.5-15.1s14.5,6.8,14.5,15.1"/>
  <path class="cls-1" d="M141.2,142c0-8.3,6.5-15.1,14.5-15.1s14.5,6.8,14.5,15.1"/>
  <circle class="cls-3" cx="162.9" cy="38.3" r="10"/>
  <polygon class="cls-3" points="163.2 33.5 156 74.2 170.3 74.2 163.2 33.5"/>
  <path class="cls-3" d="M100.4,225.8v-27.2c0-.4.3-.7.6-.7.1,0,.2,0,.4,0l53.2,28.4c.3.2.7,0,.9-.2,0-.1,0-.2,0-.4v-27.2c0-.4-.3-.7-.6-.7-.1,0-.2,0-.4,0l-53.2,28.4c-.3.2-.7,0-.9-.2,0-.1,0-.2,0-.4Z"/>
</svg>