<?xml version="1.0" encoding="UTF-8"?>
<svg id="Layer_1" data-name="Layer 1" xmlns="http://www.w3.org/2000/svg" viewBox="0 0 351.53 351.55">
  <defs>
    <style>
      .cls-1 {
        fill: #000;
        stroke-width: 0px;
      }
    </style>
  </defs>
  <path class="cls-1" d="M.09,280.35c0-21.17-.01-42.33,0-63.5,0-6.59.16-6.76,6.71-6.76,41.83-.01,83.66,0,125.49,0q7.78,0,7.79-7.57c0-18.67.15-37.33-.1-55.99-.07-5.11,1.69-6.58,6.65-6.53,19.33.23,38.66.08,57.99.1,6.64,0,6.8.16,6.81,6.66.02,18.83,0,37.66.01,56.5,0,6.81.03,6.83,7.02,6.83,41.83,0,83.66,0,125.49,0,7.46,0,7.47.02,7.48,7.5,0,42.16,0,84.33,0,126.49,0,7.33-.02,7.36-7.11,7.36-19.33.01-38.67-.12-57.99.09-4.77.05-6.39-1.52-6.34-6.32.21-19.16-.04-38.33.17-57.49.05-4.69-1.26-6.43-6.18-6.37-18.83.24-37.66.24-56.49,0-4.98-.07-6.18,1.79-6.13,6.42.2,19,.1,38,.08,56.99,0,6.52-.17,6.67-6.79,6.68-19.33.02-38.67-.13-57.99.1-4.94.06-6.73-1.38-6.67-6.51.25-19-.04-38,.19-56.99.06-4.85-1.11-6.78-6.37-6.7-18.83.29-37.66.24-56.49.02-4.69-.05-5.98,1.61-5.94,6.1.19,19.16-.06,38.33.17,57.49.06,5.03-1.54,6.66-6.58,6.59-19.5-.24-39-.25-58.49,0-5.18.07-6.52-1.81-6.47-6.7.21-21.5.09-43,.09-64.49Z"/>
  <path class="cls-1" d="M71.45,70.77c0,21.48-.11,42.95.08,64.42.04,4.76-1.49,6.39-6.3,6.34-19.64-.21-39.29-.21-58.93,0-4.8.05-6.31-1.59-6.3-6.34.14-42.95.14-85.9,0-128.85C0,1.59,1.5-.05,6.31,0c19.64.21,39.29.21,58.93,0,4.8-.05,6.34,1.58,6.3,6.34-.19,21.47-.08,42.95-.08,64.42Z"/>
  <path class="cls-1" d="M280.09,70.25c0-21.31.11-42.62-.08-63.93-.04-4.77,1.52-6.38,6.31-6.33,19.64.2,39.29.21,58.93,0,4.82-.05,6.3,1.62,6.28,6.35-.14,42.95-.14,85.9,0,128.85.02,4.77-1.52,6.38-6.31,6.33-19.64-.2-39.29-.21-58.93,0-4.82.05-6.33-1.61-6.28-6.35.19-21.64.08-43.28.08-64.92Z"/>
</svg>