<?xml version="1.0" encoding="utf-8"?>
<!-- Generator: Adobe Illustrator 27.9.3, SVG Export Plug-In . SVG Version: 9.03 Build 53313)  -->
<svg version="1.1" id="Guardians_xA0_Image_00000100372110226473325180000003411135328939011994_"
	 xmlns="http://www.w3.org/2000/svg" xmlns:xlink="http://www.w3.org/1999/xlink" x="0px" y="0px" viewBox="0 0 1500 1500"
	 style="enable-background:new 0 0 1500 1500;" xml:space="preserve">
<g>
	<path d="M152.75,740.81c0-19.09,0-38.18,0-57.27c0.3-0.48,0.83-0.93,0.88-1.43c1.93-19.83,2.88-39.81,5.97-59.45
		c3.17-20.17,8.2-40.07,12.84-59.99c7.49-32.1,19.02-62.88,33-92.6c10.58-22.49,22.38-44.51,35.12-65.85
		c13.81-23.12,29.68-45,47.3-65.43c12.82-14.87,26.08-29.41,39.77-43.47c9.39-9.65,19.61-18.55,29.94-27.21
		c12.53-10.5,25.35-20.68,38.46-30.44c9.32-6.94,19.21-13.13,29.05-19.34c11.47-7.23,22.98-14.44,34.83-21.04
		c10.43-5.81,21.14-11.22,32.08-15.99c16.35-7.13,32.78-14.19,49.59-20.1c18.55-6.53,37.38-12.42,56.41-17.34
		c23.19-6,46.71-10.68,70.68-12.56c18.27-1.44,36.52-3.75,54.81-4.32c23.97-0.75,47.99-0.54,71.88,2.58
		c14.22,1.85,28.64,2.43,42.71,5.01c17.41,3.19,34.66,7.41,51.76,12.02c16.32,4.4,32.47,9.53,48.49,14.92
		c31.99,10.77,62.53,24.84,91.46,42.26c14.77,8.89,29.74,17.56,43.88,27.39c15.69,10.92,30.89,22.63,45.65,34.8
		c11.2,9.23,21.6,19.49,31.94,29.7c10.95,10.82,22.13,21.54,31.94,33.36c14.52,17.5,28.15,35.74,41.68,54.03
		c6.45,8.72,12.24,18.01,17.51,27.49c9.44,16.99,18.91,34.02,27.16,51.6c8.74,18.62,16.77,37.64,23.83,56.96
		c6.01,16.45,10.41,33.5,15.13,50.39c2.62,9.37,4.78,18.9,6.57,28.46c2.5,13.39,4.78,26.83,6.55,40.33
		c1.69,12.89,2.71,25.88,3.81,38.84c0.51,5.96,0.75,11.97,0.7,17.95c-0.14,19.09-0.41,38.17-0.76,57.26
		c-0.1,5.64-0.4,11.29-0.99,16.89c-0.67,6.4-1.78,12.76-2.66,19.14c-1.35,9.72-2.35,19.49-4.09,29.14
		c-1.59,8.77-3.9,17.42-6.02,26.09c-3.34,13.69-6.33,27.48-10.31,40.99c-3.54,12.01-7.83,23.85-12.47,35.48
		c-7.07,17.71-14.24,35.42-22.31,52.68c-6.2,13.26-13.52,26.04-20.99,38.64c-7.96,13.43-16.12,26.82-25.23,39.48
		c-10.32,14.34-21.58,28.04-32.85,41.68c-8.52,10.31-17.44,20.32-26.63,30.04c-7.54,7.98-15.67,15.41-23.68,22.93
		c-7.02,6.59-13.81,13.56-21.47,19.34c-19.22,14.48-38.4,29.11-58.5,42.3c-17.69,11.61-36.31,21.91-55.06,31.75
		c-14.1,7.4-28.85,13.66-43.69,19.5c-16.31,6.42-32.85,12.46-49.66,17.39c-18.31,5.37-36.93,9.85-55.63,13.65
		c-17.02,3.46-34.29,5.81-51.54,8.01c-10.25,1.31-20.67,1.37-31,2.05c-0.65,0.04-1.27,0.58-1.9,0.89c-19.72,0-39.44,0-59.15,0
		c-1.1-0.31-2.19-0.82-3.31-0.91c-12.76-0.99-25.58-1.52-38.28-2.99c-11.1-1.28-22.13-3.38-33.1-5.52
		c-15.45-3.02-30.98-5.87-46.2-9.84c-14.52-3.79-28.9-8.37-42.97-13.61c-17.85-6.64-35.37-14.18-52.93-21.55
		c-26.1-10.96-50.4-25.32-73.96-40.81c-15.87-10.44-31.02-22.04-46.02-33.73c-12.21-9.52-24.05-19.58-35.44-30.06
		c-9.62-8.85-18.58-18.46-27.45-28.08c-8.62-9.34-16.97-18.94-25.04-28.75c-7.46-9.08-14.76-18.34-21.45-27.99
		c-9.13-13.19-17.91-26.64-26.29-40.32c-7.9-12.9-15.69-25.95-22.44-39.47c-7.51-15.06-14.39-30.5-20.45-46.19
		c-6.95-17.98-13.09-36.29-18.84-54.7c-4.09-13.1-7.57-26.46-10.22-39.92c-3.19-16.18-5.55-32.55-7.63-48.91
		c-1.75-13.77-2.56-27.65-3.83-41.48C153.52,743.94,153.06,742.38,152.75,740.81z M756.3,975.83
		c85.25-5.82,160.68-35.11,225.63-90.78c44.64,73.87,65.02,153.44,61.12,239.68c1.39-0.87,2.49-1.4,3.42-2.15
		c6.88-5.57,13.94-10.95,20.55-16.84c12.76-11.36,25.39-22.87,37.79-34.62c5.85-5.55,11.15-11.69,16.5-17.75
		c7.13-8.07,14.42-16.04,21-24.54c7.59-9.81,14.67-20.04,21.62-30.32c6.51-9.65,13.06-19.33,18.69-29.49
		c8.24-14.89,15.87-30.13,23.35-45.42c4.27-8.73,8.06-17.74,11.49-26.85c4.68-12.42,8.74-25.07,13.2-37.58
		c3.2-8.95,6.01-17.94,5.63-27.62c-0.35-8.84-0.2-17.72-1.01-26.52c-0.84-9.11-1.68-18.39-4.15-27.14
		c-3.79-13.44-8.92-26.59-17.44-37.89c-7.22-9.58-14.17-19.68-22.92-27.71c-11.48-10.52-24.49-19.39-37.06-28.68
		c-15.17-11.22-30.6-22.08-45.77-33.29c-1.3-0.96-2.19-3.38-2.14-5.09c0.42-13.57,1.48-27.13,1.59-40.7
		c0.08-9.25-0.83-18.53-1.67-27.77c-1.06-11.66-1.67-23.45-3.96-34.88c-3.27-16.29-7.43-32.45-12.12-48.4
		c-3.1-10.55-7.74-20.67-11.81-30.93c-6.78-17.11-15.62-33.12-25.17-48.84c-10.21-16.81-22.17-32.25-34.68-47.3
		c-6.26-7.53-13.35-14.39-20.27-21.36c-5.48-5.52-11.06-10.97-16.98-16c-4.65-3.95-9.54-7.85-14.9-10.67
		c-13.18-6.92-27.47-9.1-42.22-7.54c-9.88,1.05-19.33,4.09-27.65,9.47c-7.06,4.56-13.45,10.14-20.15,15.27
		c-19.25,14.74-40.17,26.44-63.11,34.41c-16.37,5.68-32.91,10.66-50.29,12.21c-9.46,0.84-18.92,2.54-28.36,2.48
		c-11.43-0.08-22.93-1.02-34.24-2.69c-12.25-1.81-24.61-3.95-36.37-7.67c-13.34-4.22-26.32-9.85-39.02-15.79
		c-16.78-7.85-31.76-18.55-45.89-30.59c-5.84-4.97-12.68-9.19-19.73-12.23c-11.13-4.81-23.17-6.69-35.24-4.75
		c-8.06,1.3-16.17,3.41-23.7,6.51c-11.93,4.91-20.95,14.21-29.84,23.19c-10.91,11.02-21.59,22.36-31.45,34.33
		c-9.5,11.53-18.67,23.52-26.44,36.25c-9.31,15.25-17.61,31.22-25.16,47.42c-6.05,12.98-11.13,26.55-15.2,40.28
		c-4.15,13.99-6.51,28.5-9.71,42.77c-4.13,18.44-5.15,37.18-5.55,55.98c-0.11,5.06-0.23,10.14-0.01,15.2
		c0.41,9.56,1.23,19.1,1.54,28.66c0.1,3.04,1.66,6.5-2.03,9.05c-10.42,7.18-20.74,14.48-30.97,21.93
		c-10.89,7.93-21.75,15.9-32.36,24.2c-9.56,7.47-19.75,14.49-27.9,23.34c-15.66,17.01-27.15,36.83-32.79,59.52
		c-4,16.11-6.12,32.23-1.73,48.88c6.58,25,13.35,49.9,23.85,73.6c7.28,16.41,14.21,33.01,22.36,48.98
		c6.4,12.55,14,24.56,21.85,36.29c10.74,16.06,21.89,31.88,33.5,47.33c6.54,8.71,14.16,16.66,21.62,24.64
		c9.32,9.96,18.64,19.98,28.6,29.29c9.57,8.95,19.8,17.21,30,25.45c9.14,7.38,18.38,14.68,28.03,21.35
		c9.54,6.59,19.54,12.54,29.55,18.4c11.61,6.8,23.18,13.78,35.28,19.62c14.28,6.89,29,12.92,43.73,18.81
		c10.95,4.38,22.07,8.49,33.4,11.74c15.52,4.45,31.22,8.4,47,11.79c14.31,3.08,28.8,5.42,43.29,7.52
		c10.11,1.47,20.35,2.51,30.55,2.79c17.2,0.48,34.43,0.58,51.63,0.11c13.01-0.35,25.97-2.13,38.98-2.62
		c4.42-0.16,5.91-2.06,6.13-5.59c0.7-10.93,1.59-21.88,1.57-32.83c-0.03-12.69-0.75-25.4-1.55-38.07
		c-0.62-9.84-1.38-19.72-2.84-29.46c-2.52-16.85-4.84-33.79-8.69-50.35c-6.26-26.89-14.49-53.24-26.24-78.36
		C759.89,984.71,758.22,980.37,756.3,975.83z"/>
	<path d="M414.33,647.06c-0.11-17.38,2.76-34.12,10.72-49.63c12.77-24.92,33.16-40.39,59.93-48.35c12.87-3.83,25.95-5.81,39.11-5.98
		c15.16-0.19,30.22,2.27,44.82,6.77c13.4,4.13,26.01,9.8,38.41,16.5c15.34,8.3,28.48,19.26,41.71,30.22
		c5.36,4.44,9.91,9.92,14.49,15.23c9.92,11.51,19.29,23.51,29.52,34.74c7.37,8.08,14.64,16.43,24.82,21.5
		c12.2,6.08,23.33,3.73,33.78-3.69c11.41-8.1,19.62-19.44,28.86-29.72c11.98-13.32,23.49-27.12,36.28-39.63
		c8.57-8.38,18.8-15.14,28.63-22.14c15.82-11.25,33.5-18.97,52.12-23.94c11.04-2.95,22.67-3.73,34.06-5.26
		c16.82-2.26,33.2,0.92,49.03,5.86c14.49,4.52,27.72,11.78,39,22.54c9.75,9.3,17.56,19.86,21.97,32.34
		c3.41,9.66,5.25,19.99,6.79,30.17c3.4,22.49-2.46,44.02-9.16,65.04c-5.63,17.66-12.22,35.19-20.32,51.83
		c-8.87,18.21-19.76,35.48-32.77,51.19c-6.71,8.11-13.09,16.59-20.57,23.93c-12.78,12.54-26.24,24.31-40.79,34.94
		c-23.09,16.87-47.86,30.17-74.66,40.08c-15.07,5.57-30.32,10.03-46.02,13.41c-17.3,3.73-34.7,6.23-52.36,6.97
		c-10.61,0.45-21.23,0.94-31.85,0.85c-7.03-0.06-14.06-0.98-21.07-1.78c-9.82-1.12-19.7-2.02-29.39-3.87
		c-10.74-2.05-21.39-4.71-31.9-7.74c-10.09-2.91-20.13-6.19-29.88-10.08c-15.82-6.31-31.47-13.06-45.66-22.75
		c-7.51-5.12-15.64-9.36-22.94-14.75c-8.73-6.44-17.19-13.33-25.16-20.68c-9.64-8.89-19.11-18.05-27.78-27.87
		c-7.81-8.84-14.83-18.46-21.47-28.23c-6.67-9.81-13.05-19.91-18.43-30.46c-6-11.78-11.63-23.91-15.78-36.43
		c-5.72-17.27-10.18-34.97-14.57-52.64C414.39,659.64,414.79,653.24,414.33,647.06z M693.36,767.98c0.3,0.04,0.6,0.08,0.9,0.12
		c0,1.98-0.02,3.95,0,5.93c0.21,17,3.41,33.47,8.35,49.69c4.68,15.37,11.36,29.84,19.15,43.82c3.01,5.4,8.84,8.24,13.32,5.44
		c3.68-2.3,7.12-6.08,8.97-10c5.65-11.99,10.78-24.25,15.55-36.61c5.79-15,8.34-30.76,9.03-46.77c0.36-8.47,0.27-16.97,0.06-25.44
		c-0.29-11.25-4.35-20.98-13.08-28.3c-9.55-8.02-20.56-9.9-32.73-7.65c-11.8,2.19-24.6,14.07-26.45,25.76
		C695.16,751.93,694.37,759.97,693.36,767.98z M504.5,680.13c0.42,2.89,0.99,5.76,1.25,8.67c1.29,14.23,7.17,26.02,17.34,36.19
		c16.37,16.37,39.73,14.14,54.85-2.54c10.35-11.43,14.71-25.57,15.17-40.92c0.35-11.71-2.45-22.78-7.77-33.04
		c-4.76-9.18-12.01-16.98-21.34-20.95c-16.94-7.22-32.4-2.76-44.33,10.87C509.34,650.18,505.09,664.51,504.5,680.13z M953.09,701.63
		c0.17-0.41,0.33-0.81,0.5-1.22c5.57,0.38,9.74-2.11,13.43-6.06c6.78-7.28,6.94-15.5,3.81-24.23c-8.95-24.93-35.61-37.69-60.02-33.2
		c-15.32,2.82-28.4,10.4-39.05,21.37c-7.05,7.26-12.48,16.1-18.53,24.31c-2.84,3.86-2.79,8.16-1.22,12.51
		c3.74,10.32,15.66,13.37,24.9,7.48c6.07-3.86,12.08-7.97,18.59-10.94c12.43-5.69,24.87-5.84,37.27,1.1
		C939.19,696.34,946.3,698.71,953.09,701.63z"/>
</g>
</svg>
